<svg width="80" height="92" viewBox="0 0 80 92" fill="none" xmlns="http://www.w3.org/2000/svg">
<g clip-path="url(#clip0_373_1465)">
<path d="M61.7 2H2V89.1H77.7V18L61.7 2Z" fill="white"/>
<path d="M77.7 91.1H2C0.9 91.1 0 90.2 0 89.1V2C0 0.9 0.9 0 2 0H61.7C62.2 0 62.7 0.2 63.1 0.6L79.1 16.6C79.5 17 79.7 17.5 79.7 18V89.1C79.7 90.2 78.8 91.1 77.7 91.1ZM4 87.1H75.7V18.8L60.9 4H4V87.1Z" fill="#4D4846"/>
<path d="M61.7002 18H77.7002L61.7002 2V18Z" fill="white"/>
<path d="M77.7002 20H61.7002C60.6002 20 59.7002 19.1 59.7002 18V2.00004C59.7002 1.20004 60.2002 0.500036 60.9002 0.200036C61.6002 -0.099964 62.5002 0.100036 63.1002 0.600036L79.1002 16.6C79.7002 17.2 79.8002 18 79.5002 18.8C79.3002 19.5 78.5002 20 77.7002 20ZM63.7002 16H72.9002L63.7002 6.80004V16Z" fill="#4D4846"/>
<path d="M69.3004 50.4C69.3004 34.1 56.1004 21 39.9004 21C23.7004 21 10.4004 34.1 10.4004 50.4C10.4004 66.7 23.6004 79.8 39.8004 79.8C56.0004 79.8 69.3004 66.6 69.3004 50.4Z" fill="#EFEFEF"/>
<path d="M38.5998 56.4001C38.0998 56.4001 37.5998 56.2001 37.1998 55.8001L25.8998 44.5001C25.0998 43.7001 25.0998 42.5001 25.8998 41.7001C26.6998 40.9001 27.8998 40.9001 28.6998 41.7001L38.5998 51.6001L60.4998 29.7001C61.2998 28.9001 62.4998 28.9001 63.2998 29.7001C64.0998 30.5001 64.0998 31.7001 63.2998 32.5001L39.9998 55.8001C39.5998 56.2001 39.0998 56.4001 38.5998 56.4001Z" fill="#BB9068"/>
</g>
<defs>
<clipPath id="clip0_373_1465">
<rect width="79.7" height="91.1" fill="white"/>
</clipPath>
</defs>
</svg>
