<svg width="70" height="97" viewBox="0 0 70 97" fill="none" xmlns="http://www.w3.org/2000/svg">
<g clip-path="url(#clip0_801_19320)">
<path d="M4.18805 91.2482L7.1795 95.855C7.41882 96.2738 7.89745 96.5131 8.37608 96.5131H60.4872C65.6923 96.5131 69.9402 92.2055 69.9402 86.9405V18.4362C69.9402 14.8465 68.0855 11.6755 65.094 10.0003C64.9744 4.85503 60.7863 0.666992 55.641 0.666992H5.38463C4.60685 0.666992 3.94873 1.32511 3.94873 2.16272V90.4106C3.94873 90.7097 4.00856 91.0089 4.18805 91.2482ZM67.1282 18.4362V86.8807C67.1282 90.5901 64.1368 93.6414 60.547 93.6414H9.15386L7.95728 91.8465H55.641C60.8462 91.8465 65.094 87.5388 65.094 82.214V13.5302C66.4103 14.8465 67.1282 16.5815 67.1282 18.4362ZM6.7607 3.47896H55.641C59.2906 3.47896 62.2821 6.59007 62.2821 10.2995V10.4191C62.1624 10.7183 62.1624 11.0772 62.2821 11.3764V82.214C62.2821 85.9234 59.2906 89.0345 55.641 89.0345H6.7607V3.47896Z" fill="#338F6C"/>
<path d="M9.39318 8.3252H1.55558C-0.299125 8.3252 -0.299125 11.1372 1.55558 11.1372H9.39318C11.2479 11.1372 11.2479 8.3252 9.39318 8.3252Z" fill="#3DA38D"/>
<path d="M9.39318 15.9834H1.55558C-0.299125 15.9834 -0.299125 18.7954 1.55558 18.7954H9.39318C11.2479 18.7954 11.2479 15.9834 9.39318 15.9834Z" fill="#3DA38D"/>
<path d="M9.39318 23.043H1.55558C-0.299125 23.043 -0.299125 25.8549 1.55558 25.8549H9.39318C11.2479 25.8549 11.2479 23.043 9.39318 23.043Z" fill="#3DA38D"/>
<path d="M9.39318 30.2822H1.55558C-0.299125 30.2822 -0.299125 33.0942 1.55558 33.0942H9.39318C11.2479 33.0942 11.2479 30.2822 9.39318 30.2822Z" fill="#3DA38D"/>
<path d="M9.39318 37.7012H1.55558C-0.299125 37.7012 -0.299125 40.5131 1.55558 40.5131H9.39318C11.2479 40.5131 11.2479 37.7012 9.39318 37.7012Z" fill="#3DA38D"/>
<path d="M9.39318 44.9404H1.55558C-0.299125 44.9404 -0.299125 47.7524 1.55558 47.7524H9.39318C11.2479 47.7524 11.2479 44.9404 9.39318 44.9404Z" fill="#3DA38D"/>
<path d="M9.39318 52.0005H1.55558C-0.299125 52.0005 -0.299125 54.8125 1.55558 54.8125H9.39318C11.2479 54.8125 11.2479 52.0005 9.39318 52.0005Z" fill="#3DA38D"/>
<path d="M9.39318 59.5986H1.55558C-0.299125 59.5986 -0.299125 62.4106 1.55558 62.4106H9.39318C11.2479 62.4704 11.2479 59.5986 9.39318 59.5986Z" fill="#3DA38D"/>
<path d="M9.39318 66.8379H1.55558C-0.299125 66.8379 -0.299125 69.6499 1.55558 69.6499H9.39318C11.2479 69.7097 11.2479 66.8379 9.39318 66.8379Z" fill="#3DA38D"/>
<path d="M9.39318 74.1372H1.55558C-0.299125 74.1372 -0.299125 76.9492 1.55558 76.9492H9.39318C11.2479 76.9492 11.2479 74.1372 9.39318 74.1372Z" fill="#3DA38D"/>
<path d="M9.39318 81.3765H1.55558C-0.299125 81.3765 -0.299125 84.1884 1.55558 84.1884H9.39318C11.2479 84.1884 11.2479 81.3765 9.39318 81.3765Z" fill="#3DA38D"/>
<path d="M54.624 19.3934C54.624 18.1968 53.6069 17.1797 52.4103 17.1797H21.0599C19.8633 17.1797 18.8462 18.1968 18.8462 19.3934V33.4532C18.8462 34.6498 19.8633 35.6669 21.0599 35.6669H52.4103C53.6069 35.6669 54.624 34.6498 54.624 33.4532V19.3934ZM21.6582 19.9917H51.812V32.8549H21.6582V19.9917Z" fill="#3DA38D"/>
<path d="M51.8122 72.8807C51.8122 72.1029 51.154 71.4448 50.3763 71.4448H22.8549C21.0002 71.4448 21.0002 74.2568 22.8549 74.2568H50.4361C51.2139 74.3166 51.8122 73.6585 51.8122 72.8807Z" fill="#3DA38D"/>
<path d="M26.8632 77.5474C25.0085 77.5474 25.0085 80.3593 26.8632 80.3593H46.3675C48.2222 80.3593 48.2222 77.5474 46.3675 77.5474H26.8632Z" fill="#3DA38D"/>
</g>
<defs>
<clipPath id="clip0_801_19320">
<rect width="70" height="96.0256" fill="white" transform="translate(0 0.487305)"/>
</clipPath>
</defs>
</svg>
