<svg width="24" height="24" viewBox="0 0 24 24" fill="none" xmlns="http://www.w3.org/2000/svg">
<path d="M0 12C0 5.37258 5.37258 0 12 0C18.6274 0 24 5.37258 24 12C24 18.6274 18.6274 24 12 24C5.37258 24 0 18.6274 0 12Z" fill="#F8F8F8"/>
<g clip-path="url(#clip0_801_16383)">
<path d="M19.0576 17.634C19.0232 17.2885 18.0333 17.1058 17.2745 17.0161C16.8936 17.6274 16.2191 18.0094 15.0918 18.212C15.8287 18.7967 16.1223 19.7103 16.4189 19.7402C16.7749 19.7767 16.7718 19.3283 16.9747 19.1588C17.1808 18.9894 17.8304 19.2219 17.9771 19.0857C18.2051 18.8765 17.9771 18.5874 18.2176 18.2851C18.4611 17.9861 19.1044 18.1124 19.0576 17.634Z" fill="#98DB7C"/>
<path d="M7.30743 17.0195C6.55175 17.1092 5.55875 17.2886 5.5244 17.6374C5.47756 18.1125 6.12083 17.9896 6.36127 18.2919C6.60171 18.5942 6.37064 18.8832 6.60171 19.0925C6.74848 19.2287 7.40111 18.9961 7.60408 19.1656C7.81018 19.335 7.80393 19.7835 8.15991 19.7469C8.45656 19.717 8.75009 18.8035 9.48704 18.2188C8.36289 18.0095 7.68839 17.6308 7.30743 17.0195Z" fill="#98DB7C"/>
<path d="M18.3959 10.492C19.0892 8.08349 17.0938 4.06715 15.3482 3.80471C14.2397 3.63861 13.6589 4.58539 13.6589 4.58539L10.9203 4.58539C10.9203 4.58539 10.3395 3.63861 9.23098 3.80471C7.49167 4.06715 5.4963 8.08349 6.1864 10.492C6.46119 11.4487 7.03576 12.1397 7.72587 12.6314C7.31368 13.5848 6.7797 15.0664 6.94833 16.0165C7.26059 17.7772 8.52838 18.4051 12.2912 18.4051C16.054 18.4051 17.3217 17.7805 17.634 16.0165C17.8026 15.0664 17.2687 13.5848 16.8565 12.6314C17.5466 12.1397 18.1211 11.452 18.3959 10.492Z" fill="#AEE295"/>
<path d="M17.8057 17.0926C17.6277 17.0627 17.4466 17.0395 17.2779 17.0195C16.897 17.6308 16.2225 18.0128 15.0952 18.2155C15.3887 18.448 15.6105 18.7337 15.7947 18.9961C16.9907 18.6639 17.5683 18.0593 17.8057 17.0926Z" fill="#82D361"/>
<path d="M8.79028 18.9961C8.97139 18.7337 9.19622 18.4513 9.48975 18.2155C8.36248 18.0095 7.69111 17.6308 7.30702 17.0195C7.1384 17.0395 6.95729 17.0627 6.7793 17.0926C7.01662 18.0593 7.59431 18.6639 8.79028 18.9961Z" fill="#82D361"/>
<path d="M12.2909 17.5111C8.54057 17.5111 7.26653 16.8899 6.95114 15.1392C6.90742 15.4581 6.90118 15.7571 6.94802 16.0195C7.26028 17.7802 8.52807 18.408 12.2909 18.408C16.0537 18.408 17.3214 17.7835 17.6337 16.0195C17.6806 15.7604 17.6743 15.4581 17.6306 15.1392C17.3152 16.8899 16.0412 17.5111 12.2909 17.5111Z" fill="#98DB7C"/>
<path d="M9.39014 15.7739C9.39014 15.7739 9.57125 17.3054 10.3925 18.983C10.3925 18.983 9.45571 19.6408 9.54939 19.8899C9.64619 20.1391 10.1364 19.8434 10.3176 19.8899C10.4987 19.9364 10.5767 20.2188 10.7485 20.2122C10.9202 20.2055 11.2013 19.9364 11.3074 19.9364C11.4136 19.9364 11.8414 20.2188 11.9445 20.159C12.0975 20.0726 11.8102 19.3252 11.5323 18.9897C11.5323 18.9897 11.7852 16.2888 11.7852 16.2689" fill="#AEE295"/>
<path d="M15.1917 15.7739C15.1917 15.7739 15.0106 17.3054 14.1893 18.983C14.1893 18.983 15.1261 19.6408 15.0324 19.8899C14.9356 20.1391 14.4454 19.8434 14.2643 19.8899C14.0831 19.9364 14.0051 20.2188 13.8333 20.2122C13.6616 20.2055 13.3805 19.9364 13.2744 19.9364C13.1682 19.9364 12.7404 20.2188 12.6374 20.159C12.4843 20.0726 12.7716 19.3252 13.0495 18.9897C13.0495 18.9897 12.7966 16.2888 12.7966 16.2689" fill="#AEE295"/>
<path d="M19.3109 17.6275C19.2734 17.2355 18.7738 16.9897 17.6621 16.8302C17.7589 16.6077 17.8308 16.3585 17.8807 16.0795C17.9463 15.7107 17.9213 15.2456 17.8089 14.7008C17.7808 14.5646 17.6559 14.4816 17.5279 14.5115C17.3998 14.5414 17.3218 14.6742 17.3499 14.8104C17.4498 15.2888 17.4717 15.6841 17.4186 15.9864C17.2343 17.0196 16.7316 17.7305 14.8674 18.0228C15.3108 16.807 15.4263 15.8668 15.4326 15.817C15.4482 15.6808 15.3576 15.5546 15.2296 15.538C15.1016 15.5214 14.9829 15.6177 14.9673 15.7539C14.9642 15.7672 14.7831 17.2654 13.9868 18.8899C13.9306 19.0029 13.9649 19.1424 14.0648 19.2121C14.3115 19.3849 14.5489 19.5875 14.6894 19.737C14.6644 19.7304 14.6394 19.7237 14.6176 19.7171C14.4739 19.6772 14.3365 19.6407 14.2116 19.6706C14.0524 19.7104 13.9524 19.83 13.8806 19.9197C13.865 19.9397 13.84 19.9662 13.8244 19.9862C13.7713 19.9662 13.6745 19.9031 13.6214 19.8666C13.4934 19.7835 13.3904 19.7138 13.2748 19.7138C13.1843 19.7138 13.0968 19.7536 12.9313 19.8334C12.9126 19.8433 12.8939 19.8533 12.872 19.8633C12.9376 19.6573 13.0718 19.3616 13.2249 19.1789C13.2686 19.1258 13.2873 19.0593 13.2811 18.9896C13.2124 18.262 13.0375 16.3685 13.0281 16.2688C13.0219 16.1393 12.9188 16.0363 12.7939 16.0363C12.6659 16.0363 12.5597 16.1492 12.5597 16.2854C12.5597 16.2987 12.5597 16.3153 12.7315 18.1757C12.5878 18.179 12.4379 18.179 12.2849 18.179C12.1319 18.179 11.982 18.179 11.8384 18.1757C12.0101 16.3153 12.0101 16.2987 12.0101 16.2854C12.0101 16.1492 11.904 16.0363 11.7759 16.0363C11.651 16.0363 11.548 16.1393 11.5417 16.2688C11.5355 16.3685 11.3575 18.262 11.2888 18.9896C11.2826 19.0593 11.3044 19.1258 11.345 19.1789C11.498 19.3616 11.6292 19.6573 11.6979 19.8633C11.676 19.8533 11.6542 19.8433 11.6386 19.8334C11.4762 19.7536 11.3856 19.7138 11.2951 19.7138C11.1795 19.7138 11.0796 19.7802 10.9484 19.8666C10.8922 19.9031 10.7954 19.9662 10.7455 19.9862C10.7299 19.9696 10.7049 19.9397 10.6893 19.9197C10.6174 19.8334 10.5175 19.7104 10.3583 19.6706C10.2365 19.6407 10.0991 19.6772 9.95232 19.7171C9.93359 19.7237 9.9086 19.7304 9.8805 19.737C10.021 19.5875 10.2615 19.3849 10.505 19.2121C10.605 19.1424 10.6393 19.0029 10.5831 18.8899C9.78994 17.2687 9.60571 15.7705 9.60259 15.7539C9.58697 15.6177 9.46831 15.5214 9.34028 15.538C9.21225 15.5546 9.1217 15.6808 9.13731 15.817C9.14356 15.8668 9.25909 16.807 9.70251 18.0228C8.30356 17.8102 7.39175 17.3485 7.15131 15.9864C7.13257 15.8801 7.1232 15.7605 7.1232 15.6277C7.1232 15.4915 7.02016 15.3785 6.889 15.3785C6.76098 15.3785 6.65481 15.4881 6.65481 15.6277C6.65481 15.7904 6.6673 15.9433 6.69228 16.0795C6.74224 16.3585 6.81406 16.6077 6.91086 16.8302C5.7992 16.9897 5.3027 17.2355 5.26211 17.6275C5.21527 18.1159 5.61184 18.2454 5.84916 18.3218C5.97407 18.3617 6.1021 18.4049 6.15518 18.4713C6.22076 18.5544 6.22388 18.6241 6.22388 18.7537C6.22388 18.8999 6.227 19.1258 6.42061 19.3018C6.56425 19.4347 6.78596 19.4115 7.03889 19.3882C7.15755 19.3782 7.37614 19.355 7.43859 19.3849C7.47294 19.4148 7.50729 19.4912 7.53852 19.561C7.6197 19.737 7.7571 20.0227 8.09435 20.0227C8.1162 20.0227 8.13806 20.0227 8.15992 20.0194C8.40661 19.9928 8.56899 19.7503 8.79382 19.4081C8.98118 19.1258 9.21225 18.777 9.53389 18.4979C9.65567 18.5178 9.78058 18.5378 9.91485 18.5544C9.96481 18.674 10.021 18.7969 10.0772 18.9231C9.98979 18.9896 9.8805 19.0759 9.77121 19.1723C9.48392 19.4247 9.20601 19.7204 9.31842 20.0094C9.45582 20.3682 9.85552 20.2586 10.071 20.2021C10.1303 20.1855 10.2177 20.1622 10.2552 20.1589C10.2771 20.1722 10.3145 20.2187 10.3395 20.2486C10.4176 20.345 10.5394 20.4878 10.7299 20.4878C10.7361 20.4878 10.7392 20.4878 10.7455 20.4878C10.9016 20.4812 11.0577 20.3782 11.1983 20.2885C11.2295 20.2685 11.2732 20.2386 11.3044 20.222C11.345 20.2386 11.4012 20.2685 11.4449 20.2885C11.6791 20.4014 11.8852 20.5011 12.0507 20.4048C12.0976 20.3782 12.185 20.3084 12.2069 20.1589C12.2568 19.8533 11.9977 19.262 11.7666 18.9364C11.7759 18.8467 11.7822 18.757 11.7916 18.6706C11.9508 18.674 12.1163 18.674 12.2849 18.674C12.4536 18.674 12.6191 18.674 12.7783 18.6706C12.7877 18.757 12.7939 18.8434 12.8033 18.9331C12.694 19.0826 12.5878 19.2819 12.5004 19.4912C12.4192 19.6872 12.3287 19.9629 12.363 20.1556C12.388 20.3051 12.4723 20.3715 12.5191 20.4014C12.6846 20.4978 12.8876 20.3981 13.1249 20.2852C13.1686 20.2652 13.2249 20.2353 13.2654 20.2187C13.2967 20.2353 13.3404 20.2652 13.3716 20.2852C13.509 20.3749 13.6651 20.4778 13.8244 20.4845C13.8306 20.4845 13.8338 20.4845 13.84 20.4845C14.0336 20.4845 14.1523 20.3416 14.2303 20.2453C14.2553 20.2154 14.2959 20.1656 14.3147 20.1556C14.3521 20.1556 14.4396 20.1822 14.4989 20.1988C14.7144 20.2586 15.1141 20.3649 15.2515 20.0061C15.3607 19.7171 15.0828 19.4214 14.7987 19.169C14.6894 19.0726 14.5801 18.9862 14.4926 18.9198C14.5489 18.7969 14.6051 18.674 14.655 18.5511C14.7862 18.5344 14.9142 18.5145 15.036 18.4946C15.3576 18.7736 15.5856 19.1191 15.7761 19.4048C16.0009 19.7437 16.1633 19.9895 16.41 20.0161C16.4318 20.0194 16.4537 20.0194 16.4755 20.0194C16.8128 20.0194 16.9471 19.7337 17.0314 19.5576C17.0626 19.4879 17.1001 19.4115 17.1313 19.3816C17.1937 19.3517 17.4123 19.3716 17.531 19.3849C17.7839 19.4081 18.0056 19.4314 18.1493 19.2985C18.3429 19.1224 18.346 18.8965 18.346 18.7504C18.346 18.6208 18.3522 18.5477 18.4147 18.468C18.4678 18.4016 18.5958 18.3617 18.7207 18.3185C18.9612 18.2454 19.3609 18.1159 19.3109 17.6275ZM8.42222 19.1191C8.31918 19.2719 8.18178 19.4845 8.1162 19.5211C8.07249 19.5244 8.05375 19.5144 7.96944 19.3351C7.91323 19.2188 7.85078 19.0859 7.73524 18.9862C7.55413 18.8367 7.27621 18.8633 7.00767 18.8899C6.91711 18.8999 6.78283 18.9132 6.7235 18.9032C6.71101 18.8799 6.70477 18.8467 6.70477 18.7471C6.70477 18.5976 6.70165 18.3717 6.52678 18.1491C6.38626 17.9697 6.18016 17.9033 5.99905 17.8435C5.75861 17.7671 5.73675 17.7405 5.73987 17.694C5.7711 17.6574 6.00217 17.4481 7.18253 17.2986C7.31993 17.4913 7.48543 17.6574 7.67903 17.8036C8.01316 18.0527 8.43471 18.2421 8.97493 18.3816C8.74386 18.6341 8.56587 18.9032 8.42222 19.1191ZM18.5896 17.8435C18.4084 17.9033 18.2024 17.9697 18.0618 18.1491C17.887 18.3717 17.8838 18.5976 17.8838 18.7471C17.8838 18.8467 17.8807 18.8833 17.8651 18.9032C17.8058 18.9098 17.6715 18.8965 17.5809 18.8899C17.3124 18.8633 17.0345 18.8367 16.8534 18.9862C16.7347 19.0826 16.6723 19.2155 16.6192 19.3351C16.5349 19.5144 16.5161 19.5244 16.4724 19.5211C16.4068 19.4845 16.2694 19.2753 16.1664 19.1191C16.0227 18.9032 15.8448 18.6341 15.6137 18.3783C16.1539 18.2421 16.5755 18.0527 16.9096 17.8003C17.1032 17.6541 17.2687 17.488 17.4061 17.2953C18.5896 17.4448 18.8175 17.6541 18.8487 17.6906C18.8487 17.7438 18.83 17.7671 18.5896 17.8435Z" fill="black"/>
<path d="M7.21989 12.5584C7.28235 12.6148 7.35104 12.668 7.41662 12.7211C7.20428 13.2294 6.94822 13.9171 6.79834 14.5782C6.77023 14.7077 6.84517 14.8439 6.96696 14.8771C7.09186 14.9137 7.22301 14.8273 7.25424 14.6944C7.38852 14.0998 7.61647 13.4786 7.81319 13.0002C8.19416 13.2427 8.62821 13.452 9.10597 13.6214C9.22775 13.6646 9.36203 13.5915 9.40262 13.4653C9.44322 13.3357 9.37764 13.1929 9.25586 13.1497C7.71952 12.6049 6.75774 11.6847 6.39239 10.4157C6.20503 9.76121 6.21752 8.93735 6.43299 8.02711C6.46421 7.89423 6.38927 7.75802 6.26124 7.7248C6.13633 7.69158 6.00831 7.77131 5.97708 7.90752C5.74288 8.90413 5.73039 9.82433 5.94273 10.5651C6.17068 11.3425 6.59849 12.0169 7.21989 12.5584Z" fill="black"/>
<path d="M6.40768 7.24614C6.52946 7.29597 6.66373 7.23285 6.71057 7.10661C7.31949 5.45556 8.39055 4.15997 9.25553 4.03041C10.1986 3.89088 10.6982 4.67156 10.72 4.70478C10.7638 4.77454 10.8387 4.81773 10.9168 4.81773L13.6647 4.81773C13.7428 4.81773 13.8177 4.77454 13.8614 4.70478C13.8677 4.69814 14.3735 3.88756 15.3259 4.03041C15.9255 4.1201 16.6375 4.7679 17.2308 5.76119C17.6586 6.47542 17.9927 7.31258 18.1707 8.12316C18.3643 8.99685 18.3705 9.79082 18.1894 10.4187C17.8241 11.6877 16.8623 12.6046 15.3259 13.1527C15.2104 13.1926 15.1417 13.3288 15.1729 13.455C15.2073 13.5912 15.3478 13.671 15.4727 13.6244C15.9505 13.455 16.3814 13.2457 16.7655 13.0032C16.8904 13.3055 16.9997 13.6012 17.0934 13.8802C17.1371 14.0164 17.2838 14.0829 17.4088 14.0264C17.5212 13.9733 17.5774 13.8371 17.5368 13.7141C17.4337 13.3986 17.3057 13.0663 17.1652 12.7209C17.2339 12.6677 17.2995 12.6145 17.3619 12.5581C17.9833 12.0166 18.4142 11.3422 18.6391 10.5615C19.0919 8.98356 18.458 6.87739 17.6273 5.48878C16.9497 4.35929 16.1347 3.64505 15.3915 3.53542C14.3798 3.38261 13.7584 4.04369 13.5492 4.3161L11.0354 4.3161C10.8262 4.04037 10.2048 3.38261 9.19307 3.53542C8.64973 3.61515 8.07517 4.01047 7.5287 4.67156C7.0322 5.27285 6.58879 6.07346 6.27652 6.92058C6.22656 7.05014 6.28589 7.19631 6.40768 7.24614Z" fill="black"/>
<path d="M11.2169 6.03687C11.0888 6.01694 10.9702 6.10995 10.9483 6.24616C10.9421 6.28934 10.8921 6.69131 11.17 7.03348C11.4011 7.31917 11.7789 7.46534 12.2911 7.46534C12.8032 7.46534 13.181 7.31917 13.4121 7.03348C13.6869 6.69131 13.64 6.28934 13.6338 6.24616C13.6151 6.10995 13.4933 6.01694 13.3653 6.03687C13.2372 6.0568 13.1498 6.18636 13.1685 6.32256C13.1685 6.32588 13.1935 6.5385 13.0561 6.70792C12.9187 6.87734 12.6564 6.96704 12.2911 6.96704C11.9288 6.96704 11.6665 6.88067 11.5291 6.71456C11.3886 6.54182 11.4105 6.32921 11.4136 6.32256C11.4323 6.18304 11.3449 6.0568 11.2169 6.03687Z" fill="black"/>
<path d="M9.54639 4.89749C9.28721 4.76793 8.9687 4.93403 8.81882 5.27288C8.66893 5.61172 8.75637 5.97715 9.01554 6.10671C9.3122 6.25288 9.61821 6.01369 9.74312 5.73132C9.8649 5.45227 9.84304 5.04366 9.54639 4.89749Z" fill="black"/>
<path d="M15.5697 6.10671C15.8288 5.97715 15.9132 5.61172 15.7633 5.27288C15.6134 4.93403 15.2949 4.76793 15.0357 4.89749C14.7422 5.04366 14.7172 5.45227 14.8421 5.73132C14.9639 6.01369 15.273 6.25288 15.5697 6.10671Z" fill="black"/>
</g>
<defs>
<clipPath id="clip0_801_16383">
<rect width="14.0488" height="16.9756" fill="white" transform="matrix(-1 -8.74228e-08 -8.74228e-08 1 19.3169 3.51221)"/>
</clipPath>
</defs>
</svg>
