<svg width="70" height="94" viewBox="0 0 70 94" fill="none" xmlns="http://www.w3.org/2000/svg">
<g clip-path="url(#clip0_801_19287)">
<path d="M69.3211 16.0353C69.1976 15.8511 69.0742 15.7283 68.9507 15.6055L55.3087 1.66691C55.0001 1.35989 54.6297 1.11427 54.2593 0.930064C54.0124 0.745854 53.7038 0.623047 53.4569 0.623047C53.3951 0.623047 53.3334 0.68445 53.2717 0.68445C53.1482 0.68445 53.0865 0.68445 52.9631 0.68445H14.6914C13.8272 0.68445 12.963 0.991468 12.3458 1.6055C11.7285 2.21954 11.3581 3.07919 11.3581 3.93884V6.64059H8.82724C7.96304 6.64059 7.09884 6.94761 6.48156 7.56164C5.86428 8.17568 5.49391 9.03533 5.49391 9.89498V11.3073H3.45687C2.59267 11.3073 1.72847 11.6143 1.11119 12.2283C0.493905 12.8423 0.123535 13.702 0.123535 14.5616V90.3336C0.123535 91.1932 0.493905 92.0529 1.11119 92.6669C1.72847 93.281 2.59267 93.588 3.45687 93.588H55.5556C56.4198 93.588 57.284 93.281 57.9013 92.6669C58.5186 92.0529 58.889 91.1932 58.889 90.3336V88.6757H60.8643C61.7285 88.6757 62.5927 88.3687 63.21 87.7546C63.8272 87.1406 64.1976 86.281 64.1976 85.4213V83.2108H66.5433C67.4075 83.2108 68.2717 82.8424 68.889 82.2283C69.5063 81.6143 69.8766 80.7546 69.8766 79.895V17.9388C69.8766 17.816 69.8766 17.6318 69.8149 17.509C70.0001 16.9564 69.7532 16.3423 69.3211 16.0353ZM65.3087 15.7897H55.3705C55.0618 15.7897 54.7532 15.4827 54.7532 15.1757V5.1055L65.3087 15.7897ZM56.1729 90.395C56.1729 90.702 55.8643 90.9476 55.5556 90.8862H3.45687C3.14823 90.8862 2.90131 90.702 2.83958 90.395V14.623C2.83958 14.316 3.0865 14.0704 3.45687 14.0704H5.43218V85.4827C5.43218 86.3423 5.80255 87.202 6.41983 87.816C7.03712 88.4301 7.90131 88.7985 8.76551 88.7371H56.1729V90.395ZM61.4816 85.4827C61.4816 85.7897 61.2347 86.0353 60.8643 86.0353H8.76551C8.45687 86.0353 8.20996 85.7897 8.14823 85.4827V9.89498C8.14823 9.58796 8.39514 9.34235 8.76551 9.34235H11.2964V79.9564C11.2964 80.816 11.6667 81.6757 12.284 82.2897C12.9013 82.9038 13.7655 83.2722 14.6297 83.2722H61.4198V85.4827H61.4816ZM66.5433 80.509H14.6914C14.3828 80.509 14.0742 80.2634 14.0742 79.9564V4.00024C14.0742 3.69322 14.3211 3.50901 14.6914 3.50901H52.0371V15.2371C52.0371 17.0792 53.5186 18.5529 55.3705 18.5529H67.1606V79.9564C67.1606 80.3248 66.9137 80.5704 66.5433 80.509Z" fill="#338F6C"/>
<path d="M60.4937 24.6318H20.5554C18.7035 24.6318 18.7035 27.395 20.5554 27.395H60.4937C62.2838 27.3336 62.2838 24.6318 60.4937 24.6318Z" fill="#3DA38D"/>
<path d="M60.4937 32.4302H20.5554C18.7035 32.4302 18.7035 35.1933 20.5554 35.1933H60.4937C62.2838 35.1933 62.2838 32.4302 60.4937 32.4302Z" fill="#3DA38D"/>
<path d="M60.4937 40.4741H20.5554C18.7035 40.4741 18.7035 43.2373 20.5554 43.2373H60.4937C62.2838 43.1759 62.2838 40.4741 60.4937 40.4741Z" fill="#3DA38D"/>
<path d="M60.4937 48.4565H20.5554C18.7035 48.4565 18.7035 51.2197 20.5554 51.2197H60.4937C62.2838 51.2197 62.2838 48.4565 60.4937 48.4565Z" fill="#3DA38D"/>
<path d="M48.2714 59.0176C50.1233 59.0176 50.1233 56.2544 48.2714 56.2544H20.5554C18.7035 56.2544 18.7035 59.0176 20.5554 59.0176H48.2714Z" fill="#3DA38D"/>
</g>
<defs>
<clipPath id="clip0_801_19287">
<rect width="70" height="93.3333" fill="white" transform="translate(0 0.5)"/>
</clipPath>
</defs>
</svg>
