<svg width="88" height="85" viewBox="0 0 88 85" fill="none" xmlns="http://www.w3.org/2000/svg">
<path d="M82.667 31.5654V79.6089C82.667 81.8263 81.2003 83.3046 79.0003 83.3046H9.33366C7.13366 83.3046 5.66699 81.8263 5.66699 79.6089V31.5654" stroke="#3DA38D" stroke-width="2" stroke-miterlimit="10" stroke-linecap="round" stroke-linejoin="round"/>
<path d="M2 24.1739L6.03333 2H81.9333L85.9667 24.1739C85.9667 28.2391 82.3 31.5652 77.5333 31.5652C72.7667 31.5652 69.1 28.2391 69.1 24.1739C69.1 28.2391 65.4333 31.5652 60.6667 31.5652C55.9 31.5652 52.2333 28.2391 52.2333 24.1739C52.2333 28.2391 48.5667 31.5652 43.8 31.5652C39.0333 31.5652 35.3667 28.2391 35.3667 24.1739C35.3667 28.2391 31.7 31.5652 26.9333 31.5652C22.1667 31.5652 18.5 28.2391 18.5 24.1739C18.5 28.2391 14.8333 31.5652 10.0667 31.5652C5.3 31.5652 2 28.2391 2 24.1739Z" stroke="#3DA38D" stroke-width="2" stroke-miterlimit="10" stroke-linecap="round" stroke-linejoin="round"/>
<path d="M60.667 83.3042H27.667V53.739C27.667 49.6737 30.967 46.3477 35.0003 46.3477H53.3337C57.367 46.3477 60.667 49.6737 60.667 53.739V83.3042Z" stroke="#3DA38D" stroke-width="2" stroke-miterlimit="10" stroke-linecap="round" stroke-linejoin="round"/>
</svg>
