<svg width="19" height="12" viewBox="0 0 19 12" fill="none" xmlns="http://www.w3.org/2000/svg">
<path d="M9.5 12C12.7788 12 15.9735 10.1007 18.5796 6.56115L19 6.04317L18.5796 5.52518C15.9735 1.89928 12.7788 0 9.5 0C6.22124 0 3.02655 1.89928 0.420354 5.43885L0 6.04317L0.420354 6.56115C3.02655 10.1007 6.22124 12 9.5 12ZM9.5 1.72662C12.1062 1.72662 14.6283 3.19424 16.8982 6.04317C14.6283 8.80576 12.1062 10.3597 9.5 10.3597C6.89381 10.3597 4.37168 8.89209 2.10177 6.04317C4.37168 3.19424 6.89381 1.72662 9.5 1.72662Z" fill="#0E0F0E"/>
<path d="M9.49955 9.49632C11.3491 9.49632 12.8624 7.94236 12.8624 6.04308C12.8624 4.1438 11.3491 2.58984 9.49955 2.58984C7.64999 2.58984 6.13672 4.1438 6.13672 6.04308C6.13672 7.94236 7.64999 9.49632 9.49955 9.49632ZM9.49955 4.31646C10.4243 4.31646 11.181 5.09344 11.181 6.04308C11.181 6.99272 10.4243 7.7697 9.49955 7.7697C8.57477 7.7697 7.81813 6.99272 7.81813 6.04308C7.81813 5.09344 8.57477 4.31646 9.49955 4.31646Z" fill="#0E0F0E"/>
</svg>
