<svg width="20" height="20" viewBox="0 0 20 20" fill="none" xmlns="http://www.w3.org/2000/svg">
<circle cx="9.99967" cy="10.0002" r="6.66667" fill="white"/>
<path d="M10.0003 1.6665C5.41699 1.6665 1.66699 5.4165 1.66699 9.99984C1.66699 14.5832 5.41699 18.3332 10.0003 18.3332C14.5837 18.3332 18.3337 14.5832 18.3337 9.99984C18.3337 5.4165 14.5837 1.6665 10.0003 1.6665ZM13.0837 11.9165C13.417 12.2498 13.417 12.7498 13.0837 13.0832C12.7503 13.4165 12.2503 13.4165 11.917 13.0832L10.0003 11.1665L8.08366 13.0832C7.75033 13.4165 7.25033 13.4165 6.91699 13.0832C6.58366 12.7498 6.58366 12.2498 6.91699 11.9165L8.83366 9.99984L6.91699 8.08317C6.58366 7.74984 6.58366 7.24984 6.91699 6.9165C7.25033 6.58317 7.75033 6.58317 8.08366 6.9165L10.0003 8.83317L11.917 6.9165C12.2503 6.58317 12.7503 6.58317 13.0837 6.9165C13.417 7.24984 13.417 7.74984 13.0837 8.08317L11.167 9.99984L13.0837 11.9165Z" fill="#3DA38D"/>
</svg>
