<svg width="20" height="20" viewBox="0 0 20 20" fill="none" xmlns="http://www.w3.org/2000/svg">
<path d="M10.0002 0C8.02242 0 6.08902 0.58649 4.44453 1.6853C2.80004 2.78412 1.51832 4.3459 0.76144 6.17317C0.00456393 8.00043 -0.193469 10.0111 0.192383 11.9509C0.578235 13.8907 1.53064 15.6725 2.92917 17.0711C4.32769 18.4696 6.10952 19.422 8.04933 19.8079C9.98914 20.1937 11.9998 19.9957 13.8271 19.2388C15.6543 18.4819 17.2161 17.2002 18.3149 15.5557C19.4137 13.9112 20.0002 11.9778 20.0002 10C20.0002 8.68678 19.7416 7.38642 19.239 6.17317C18.7365 4.95991 17.9999 3.85752 17.0713 2.92893C16.1427 2.00035 15.0403 1.26375 13.8271 0.761205C12.6138 0.258658 11.3135 0 10.0002 0ZM10.0002 18C8.41799 18 6.87127 17.5308 5.55567 16.6518C4.24008 15.7727 3.2147 14.5233 2.6092 13.0615C2.0037 11.5997 1.84527 9.99113 2.15395 8.43928C2.46264 6.88743 3.22456 5.46197 4.34338 4.34315C5.4622 3.22433 6.88767 2.4624 8.43951 2.15372C9.99136 1.84504 11.5999 2.00346 13.0617 2.60896C14.5235 3.21447 15.7729 4.23984 16.652 5.55544C17.531 6.87103 18.0002 8.41775 18.0002 10C18.0002 12.1217 17.1574 14.1566 15.6571 15.6569C14.1568 17.1571 12.122 18 10.0002 18ZM14.0002 9H11.0002H10.6924H10.1924H10.0002H9.69238H9.19238H9.00024H6.00024C5.73502 9 5.48067 9.10536 5.29313 9.29289C5.10559 9.48043 5.00024 9.73478 5.00024 10C5.00024 10.2652 5.10559 10.5196 5.29313 10.7071C5.48067 10.8946 5.73502 11 6.00024 11H9.00024H9.19238H9.69238H10.1924H10.6924H11.0002H14.0002C14.2655 11 14.5198 10.8946 14.7073 10.7071C14.8949 10.5196 15.0002 10.2652 15.0002 10C15.0002 9.73478 14.8949 9.48043 14.7073 9.29289C14.5198 9.10536 14.2655 9 14.0002 9Z" fill="#BB9068"/>
</svg>
