<svg width="5" height="20" viewBox="0 0 5 20" fill="none" xmlns="http://www.w3.org/2000/svg">
<path d="M0.31427 17.2439C0.31427 15.8834 1.36321 14.7805 2.65713 14.7805C3.95106 14.7805 5 15.8834 5 17.2439C5 18.6044 3.95106 19.7073 2.65713 19.7073C2.03577 19.7073 1.43985 19.4478 1.00048 18.9858C0.561107 18.5238 0.31427 17.8972 0.31427 17.2439ZM0.31427 9.85366C0.31427 8.49315 1.36321 7.39024 2.65713 7.39024C3.95106 7.39024 5 8.49315 5 9.85366C5 11.2142 3.95106 12.3171 2.65713 12.3171C2.03577 12.3171 1.43985 12.0575 1.00048 11.5956C0.561107 11.1336 0.31427 10.507 0.31427 9.85366ZM0.31427 2.46341C0.31427 1.10291 1.36321 -1.95803e-07 2.65714 -1.26139e-07C3.95106 -5.64742e-08 5 1.10291 5 2.46341C5 3.82392 3.95106 4.92683 2.65714 4.92683C2.03577 4.92683 1.43985 4.66729 1.00048 4.20531C0.561107 3.74333 0.31427 3.11675 0.31427 2.46341Z" fill="#338F6C"/>
</svg>
