<svg width="19" height="19" viewBox="0 0 19 19" fill="none" xmlns="http://www.w3.org/2000/svg">
<path d="M0.791667 1.94373H18.2083C18.6438 1.94373 19 1.50639 19 0.971867C19 0.43734 18.6438 0 18.2083 0H0.791667C0.35625 0 0 0.43734 0 0.971867C0 1.50639 0.35625 1.94373 0.791667 1.94373Z" fill="white"/>
<path d="M1.1875 10.2045H17.8125C18.4656 10.2045 19 9.76714 19 9.23261C19 8.69808 18.4656 8.26074 17.8125 8.26074H1.1875C0.534375 8.26074 0 8.69808 0 9.23261C0 9.76714 0.534375 10.2045 1.1875 10.2045Z" fill="white"/>
<path d="M18.2083 16.5215H0.791667C0.35625 16.5215 0 16.9588 0 17.4934C0 18.0279 0.35625 18.4652 0.791667 18.4652H18.2083C18.6438 18.4652 19 18.0279 19 17.4934C19 16.9588 18.6438 16.5215 18.2083 16.5215Z" fill="white"/>
</svg>
