<svg width="30" height="30" viewBox="0 0 30 30" fill="none" xmlns="http://www.w3.org/2000/svg">
<path d="M15.5 15C19.0902 15 22 12.0902 22 8.5C22 4.90977 19.0902 2 15.5 2C11.9098 2 9 4.90977 9 8.5C9.00508 12.0902 11.9098 14.9949 15.5 15ZM15.5 4.16836C17.8918 4.16836 19.8316 6.1082 19.8316 8.5C19.8316 10.8918 17.8918 12.8316 15.5 12.8316C13.1082 12.8316 11.1684 10.8918 11.1684 8.5C11.1684 6.1082 13.1082 4.16836 15.5 4.16836Z" fill="white"/>
<path d="M15.0057 18C8.92965 18.0056 4.00573 22.8383 4 28.8017C4 29.4599 4.55029 30 5.22095 30C5.89161 30 6.4419 29.4599 6.4419 28.8017C6.4419 24.1603 10.2767 20.4022 15 20.4022C19.7233 20.4022 23.5581 24.166 23.5581 28.8017C23.5581 29.4655 24.1084 30 24.779 30C25.4554 30 26 29.4599 26 28.8017C26.0057 22.8383 21.0818 18.0056 15.0057 18Z" fill="white"/>
</svg>
