<svg width="40" height="40" viewBox="0 0 40 40" fill="none" xmlns="http://www.w3.org/2000/svg">
<path d="M4.99811 26.6667C7.63571 29.308 11.1481 30.8936 14.8737 31.1248C18.5993 31.356 22.2809 30.2169 25.2248 27.9219L35.3543 38.0515C35.7136 38.3984 36.1947 38.5904 36.6941 38.5861C37.1935 38.5817 37.6713 38.3814 38.0244 38.0283C38.3776 37.6751 38.5779 37.1974 38.5823 36.6979C38.5866 36.1985 38.3946 35.7174 38.0476 35.3581L27.9181 25.2286C30.3149 22.1527 31.448 18.2784 31.0865 14.3958C30.7249 10.5132 28.8959 6.91469 25.9724 4.33425C23.0489 1.75381 19.2511 0.385775 15.3537 0.509138C11.4562 0.632501 7.75257 2.23797 4.99811 4.99813C3.57487 6.42065 2.44585 8.10965 1.67556 9.96863C0.905262 11.8276 0.508789 13.8202 0.508789 15.8324C0.508789 17.8447 0.905262 19.8372 1.67556 21.6962C2.44585 23.5552 3.57487 25.2442 4.99811 26.6667ZM7.69145 7.69527C9.57444 5.81232 12.0521 4.6405 14.7022 4.37946C17.3523 4.11842 20.0109 4.78432 22.2251 6.2637C24.4393 7.74308 26.072 9.94441 26.8452 12.4926C27.6183 15.0409 27.484 17.7783 26.4651 20.2386C25.4462 22.6989 23.6058 24.7298 21.2574 25.9853C18.909 27.2408 16.198 27.6433 13.5862 27.124C10.9743 26.6048 8.62334 25.1961 6.93373 23.1378C5.24411 21.0796 4.32042 18.4992 4.32002 15.8362C4.31479 14.323 4.61012 12.8239 5.18887 11.4257C5.76762 10.0276 6.61826 8.75826 7.69145 7.69146V7.69527Z" fill="#338F6C"/>
</svg>
